<svg width="20" height="21" viewBox="0 0 20 21" fill="none" xmlns="http://www.w3.org/2000/svg">
<path d="M19.4444 2.94249L17.8889 1.0536C17.6667 0.720269 17.2222 0.498047 16.6667 0.498047H3.33333C2.77778 0.498047 2.33333 0.720269 2 1.0536L0.555556 2.94249C0.222222 3.38694 0 3.83138 0 4.38694V18.2758C0 19.498 1 20.498 2.22222 20.498H17.7778C19 20.498 20 19.498 20 18.2758V4.38694C20 3.83138 19.7778 3.38694 19.4444 2.94249ZM10 16.6092L3.88889 10.498H7.77778V8.27582H12.2222V10.498H16.1111L10 16.6092ZM2.33333 2.72027L3.22222 1.60916H16.5556L17.5556 2.72027H2.33333Z" fill="#8E94B1"/>
</svg>
