<svg width="30" height="23" viewBox="0 0 30 23" fill="none" xmlns="http://www.w3.org/2000/svg">
<g opacity="0.6">
<path d="M18.8447 22.3097C15.1333 22.3097 11.6758 20.4715 9.59568 17.3926C9.17403 16.7685 9.33822 15.9209 9.96225 15.4992C10.5865 15.0777 11.434 15.2417 11.8556 15.8658C13.4279 18.193 16.0406 19.5824 18.8447 19.5824C23.4916 19.5824 27.2722 15.8018 27.2722 11.1549C27.2722 6.50786 23.4916 2.72731 18.8447 2.72731C16.0322 2.72731 13.4153 4.12298 11.8443 6.46075C11.424 7.08596 10.5769 7.25202 9.95176 6.83195C9.32673 6.41182 9.16056 5.56454 9.58057 4.93944C11.6592 1.84656 15.1224 0 18.8447 0C24.9954 0 29.9995 5.00402 29.9995 11.1549C29.9995 17.3056 24.9954 22.3097 18.8447 22.3097Z" fill="#6E7994"/>
<path d="M20.4548 9.7912H4.65584L6.41897 8.02814C6.95154 7.49557 6.95154 6.63217 6.41897 6.09966C5.88651 5.5672 5.023 5.5672 4.49049 6.09966L0.399442 10.1906C0.39745 10.1926 0.395809 10.1947 0.393817 10.1967C0.364637 10.2263 0.33657 10.257 0.310085 10.2892C0.301882 10.2991 0.294967 10.3098 0.287174 10.3198C0.267603 10.3449 0.248091 10.3701 0.230337 10.3965C0.224536 10.4055 0.219497 10.4149 0.213696 10.4239C0.195532 10.4526 0.177602 10.4813 0.161429 10.5113C0.157855 10.5178 0.155218 10.5248 0.151703 10.5314C0.134769 10.5644 0.118421 10.5976 0.104241 10.632C0.102307 10.6366 0.100901 10.6415 0.0988498 10.6463C0.0843183 10.6827 0.0705484 10.7196 0.0591224 10.7575C0.0575989 10.7626 0.0566614 10.7677 0.0551965 10.7728C0.0442978 10.8102 0.0343953 10.8478 0.0266607 10.8865C0.0243755 10.8981 0.0233208 10.91 0.02127 10.9217C0.0156449 10.9538 0.0100198 10.9859 0.00673843 11.0187C0.0023438 11.0638 0 11.1092 0 11.1549C0 11.2005 0.0023438 11.246 0.00679702 11.2911C0.0101369 11.3243 0.0158793 11.3568 0.0215044 11.3893C0.0234966 11.4005 0.0243169 11.4121 0.0266607 11.4232C0.0344539 11.4624 0.0445908 11.5007 0.0555481 11.5386C0.0568958 11.5431 0.0576575 11.5478 0.0591224 11.5523C0.0708414 11.5907 0.0846698 11.6283 0.099553 11.6654C0.101194 11.6693 0.102366 11.6736 0.104006 11.6776C0.118655 11.7128 0.135296 11.7468 0.15264 11.7803C0.155628 11.7862 0.158207 11.7924 0.161254 11.7983C0.177953 11.8293 0.196528 11.8591 0.215337 11.8887C0.220493 11.8967 0.224888 11.9051 0.230044 11.9129C0.248853 11.941 0.269479 11.9678 0.290338 11.9943C0.29696 12.0029 0.302878 12.0118 0.309792 12.0202C0.338093 12.0547 0.368094 12.0878 0.399442 12.1193L4.49025 16.2101C4.75651 16.4763 5.10556 16.6095 5.45455 16.6095C5.80354 16.6095 6.1526 16.4763 6.41873 16.2101C6.9513 15.6775 6.9513 14.8141 6.41873 14.2816L4.65567 12.5185H20.4546C21.2078 12.5185 21.8183 11.9079 21.8183 11.1548C21.8183 10.4017 21.2079 9.7912 20.4548 9.7912Z" fill="#6E7994"/>
</g>
</svg>
