<svg width="170" height="40" viewBox="0 0 170 40" fill="none" xmlns="http://www.w3.org/2000/svg">
<path fill-rule="evenodd" clip-rule="evenodd" d="M19.6236 31.3978C26.1264 31.3978 31.3978 26.1264 31.3978 19.6236C31.3978 13.1209 26.1264 7.84946 19.6236 7.84946C13.1209 7.84946 7.84946 13.1209 7.84946 19.6236C7.84946 26.1264 13.1209 31.3978 19.6236 31.3978ZM19.6236 39.2473C30.4615 39.2473 39.2473 30.4615 39.2473 19.6236C39.2473 18.6913 39.1823 17.7741 39.0565 16.8763C33.9489 12.5591 32.9505 11.4157 29.8279 8.43817C26.7957 5.54673 21.9785 0.588709 21.7823 0.392473C21.7823 0.392473 21.5939 0.0976728 21.586 0.0968923C20.9406 0.0328097 20.2859 0 19.6236 0C8.78581 0 0 8.78581 0 19.6236C0 30.4615 8.78581 39.2473 19.6236 39.2473Z" fill="#2339AA"/>
<path d="M31.3978 19.6235C33.164 18.8385 39.0511 16.8762 39.0511 16.8762C39.0511 16.8762 31.0061 16.2874 31.0054 16.4837C31.0046 16.68 31.3978 18.2498 31.3978 19.6235Z" fill="#182C92"/>
<path d="M21.5859 16.8764V0.0950623L39.051 16.8764H21.5859Z" fill="#33B5FF"/>
<path d="M71.7382 28.7997C69.3807 31.1349 66.5117 32.3025 63.1312 32.3025C59.7507 32.3025 56.8818 31.1349 54.5243 28.7997C52.1891 26.4422 51.0215 23.5621 51.0215 20.1594C51.0215 16.7566 52.1891 13.8877 54.5243 11.5524C56.8818 9.19499 59.7507 8.01626 63.1312 8.01626C66.5117 8.01626 69.3807 9.19499 71.7382 11.5524C74.0956 13.8877 75.2744 16.7566 75.2744 20.1594C75.2744 23.5621 74.0956 26.4422 71.7382 28.7997ZM57.7602 25.6638C59.2059 27.0872 60.9962 27.7989 63.1312 27.7989C65.2663 27.7989 67.0566 27.0872 68.5022 25.6638C69.9478 24.2182 70.6706 22.3834 70.6706 20.1594C70.6706 17.9354 69.9478 16.1005 68.5022 14.6549C67.0566 13.2093 65.2663 12.4865 63.1312 12.4865C60.9962 12.4865 59.2059 13.2093 57.7602 14.6549C56.3146 16.1005 55.5918 17.9354 55.5918 20.1594C55.5918 22.3834 56.3146 24.2182 57.7602 25.6638Z" fill="#0E1F4D"/>
<path d="M93.6889 31.8354H88.6849L82.6133 24.2627V31.8354H78.3099V8.4833H82.6133V22.4946L88.3513 15.1553H93.4888L86.7834 23.3953L93.6889 31.8354Z" fill="#0E1F4D"/>
<path d="M97.9721 13.1537C97.2604 13.1537 96.6377 12.898 96.1039 12.3864C95.5924 11.8527 95.3366 11.23 95.3366 10.5183C95.3366 9.80659 95.5924 9.18387 96.1039 8.6501C96.6377 8.11634 97.2604 7.84946 97.9721 7.84946C98.706 7.84946 99.3287 8.11634 99.8402 8.6501C100.374 9.18387 100.641 9.80659 100.641 10.5183C100.641 11.23 100.374 11.8527 99.8402 12.3864C99.3287 12.898 98.706 13.1537 97.9721 13.1537ZM95.837 31.8354V15.1553H100.14V31.8354H95.837Z" fill="#0E1F4D"/>
<path d="M113.554 8.4833C116.756 8.4833 119.425 9.60643 121.56 11.8527C123.717 14.0989 124.796 16.8678 124.796 20.1594C124.796 23.4509 123.717 26.2198 121.56 28.4661C119.425 30.7123 116.756 31.8354 113.554 31.8354H104.279V8.4833H113.554ZM113.554 27.4319C115.577 27.4319 117.223 26.7647 118.491 25.4303C119.759 24.0736 120.392 22.3167 120.392 20.1594C120.392 18.0021 119.759 16.2562 118.491 14.9218C117.223 13.5652 115.577 12.8868 113.554 12.8868H108.883V27.4319H113.554Z" fill="#0E1F4D"/>
<path d="M142.073 29.7671C140.36 31.4574 138.27 32.3025 135.801 32.3025C133.333 32.3025 131.242 31.4574 129.53 29.7671C127.839 28.0546 126.994 25.964 126.994 23.4954C126.994 21.0267 127.839 18.9473 129.53 17.257C131.242 15.5445 133.333 14.6883 135.801 14.6883C138.27 14.6883 140.36 15.5445 142.073 17.257C143.785 18.9473 144.642 21.0267 144.642 23.4954C144.642 25.964 143.785 28.0546 142.073 29.7671ZM132.565 26.7981C133.433 27.6654 134.511 28.0991 135.801 28.0991C137.091 28.0991 138.17 27.6654 139.037 26.7981C139.905 25.9307 140.338 24.8298 140.338 23.4954C140.338 22.161 139.905 21.0601 139.037 20.1927C138.17 19.3254 137.091 18.8917 135.801 18.8917C134.511 18.8917 133.433 19.3254 132.565 20.1927C131.72 21.0601 131.298 22.161 131.298 23.4954C131.298 24.8298 131.72 25.9307 132.565 26.7981Z" fill="#0E1F4D"/>
<path d="M163.048 31.8354H158.044L151.973 24.2627V31.8354H147.669V8.4833H151.973V22.4946L157.711 15.1553H162.848L156.143 23.3953L163.048 31.8354Z" fill="#0E1F4D"/>
<path d="M167.331 13.1537C166.62 13.1537 165.997 12.898 165.463 12.3864C164.952 11.8527 164.696 11.23 164.696 10.5183C164.696 9.80659 164.952 9.18387 165.463 8.6501C165.997 8.11634 166.62 7.84946 167.331 7.84946C168.065 7.84946 168.688 8.11634 169.199 8.6501C169.733 9.18387 170 9.80659 170 10.5183C170 11.23 169.733 11.8527 169.199 12.3864C168.688 12.898 168.065 13.1537 167.331 13.1537ZM165.196 31.8354V15.1553H169.5V31.8354H165.196Z" fill="#0E1F4D"/>
</svg>
