<svg width="170" height="40" viewBox="0 0 170 40" fill="none" xmlns="http://www.w3.org/2000/svg">
<path fill-rule="evenodd" clip-rule="evenodd" d="M19.6236 31.3978C26.1264 31.3978 31.3978 26.1264 31.3978 19.6236C31.3978 13.1209 26.1264 7.84946 19.6236 7.84946C13.1209 7.84946 7.84946 13.1209 7.84946 19.6236C7.84946 26.1264 13.1209 31.3978 19.6236 31.3978ZM19.6236 39.2473C30.4615 39.2473 39.2473 30.4615 39.2473 19.6236C39.2473 18.6913 39.1823 17.7741 39.0565 16.8763C33.9489 12.5591 32.9505 11.4157 29.8279 8.43817C26.7957 5.54673 21.9785 0.588709 21.7823 0.392473C21.7823 0.392473 21.5939 0.0976728 21.586 0.0968923C20.9406 0.0328097 20.2859 0 19.6236 0C8.78581 0 0 8.78581 0 19.6236C0 30.4615 8.78581 39.2473 19.6236 39.2473Z" fill="white"/>
<path opacity="0.2" d="M31.3977 19.6235C33.1638 18.8385 39.0509 16.8762 39.0509 16.8762C39.0509 16.8762 31.006 16.2874 31.0052 16.4837C31.0044 16.68 31.3977 18.2498 31.3977 19.6235Z" fill="#182C92"/>
<path d="M21.5859 16.8764V0.0950623L39.0509 16.8764H21.5859Z" fill="#33B5FF"/>
<path d="M71.7381 28.7997C69.3806 31.1349 66.5116 32.3025 63.1311 32.3025C59.7506 32.3025 56.8816 31.1349 54.5242 28.7997C52.189 26.4422 51.0214 23.5621 51.0214 20.1594C51.0214 16.7566 52.189 13.8877 54.5242 11.5524C56.8816 9.19499 59.7506 8.01626 63.1311 8.01626C66.5116 8.01626 69.3806 9.19499 71.7381 11.5524C74.0955 13.8877 75.2742 16.7566 75.2742 20.1594C75.2742 23.5621 74.0955 26.4422 71.7381 28.7997ZM57.7601 25.6638C59.2057 27.0872 60.9961 27.7989 63.1311 27.7989C65.2662 27.7989 67.0565 27.0872 68.5021 25.6638C69.9477 24.2182 70.6705 22.3834 70.6705 20.1594C70.6705 17.9354 69.9477 16.1005 68.5021 14.6549C67.0565 13.2093 65.2662 12.4865 63.1311 12.4865C60.9961 12.4865 59.2057 13.2093 57.7601 14.6549C56.3145 16.1005 55.5917 17.9354 55.5917 20.1594C55.5917 22.3834 56.3145 24.2182 57.7601 25.6638Z" fill="white"/>
<path d="M93.6888 31.8354H88.6848L82.6132 24.2627V31.8354H78.3097V8.4833H82.6132V22.4946L88.3512 15.1553H93.4886L86.7832 23.3953L93.6888 31.8354Z" fill="white"/>
<path d="M97.9719 13.1537C97.2603 13.1537 96.6375 12.898 96.1038 12.3864C95.5922 11.8527 95.3365 11.23 95.3365 10.5183C95.3365 9.80659 95.5922 9.18387 96.1038 8.6501C96.6375 8.11634 97.2603 7.84946 97.9719 7.84946C98.7059 7.84946 99.3286 8.11634 99.8401 8.6501C100.374 9.18387 100.641 9.80659 100.641 10.5183C100.641 11.23 100.374 11.8527 99.8401 12.3864C99.3286 12.898 98.7059 13.1537 97.9719 13.1537ZM95.8369 31.8354V15.1553H100.14V31.8354H95.8369Z" fill="white"/>
<path d="M113.554 8.4833C116.756 8.4833 119.425 9.60643 121.56 11.8527C123.717 14.0989 124.796 16.8678 124.796 20.1594C124.796 23.4509 123.717 26.2198 121.56 28.4661C119.425 30.7123 116.756 31.8354 113.554 31.8354H104.279V8.4833H113.554ZM113.554 27.4319C115.577 27.4319 117.223 26.7647 118.491 25.4303C119.758 24.0736 120.392 22.3167 120.392 20.1594C120.392 18.0021 119.758 16.2562 118.491 14.9218C117.223 13.5652 115.577 12.8868 113.554 12.8868H108.883V27.4319H113.554Z" fill="white"/>
<path d="M142.073 29.7671C140.36 31.4574 138.27 32.3025 135.801 32.3025C133.332 32.3025 131.242 31.4574 129.529 29.7671C127.839 28.0546 126.994 25.964 126.994 23.4954C126.994 21.0267 127.839 18.9473 129.529 17.257C131.242 15.5445 133.332 14.6883 135.801 14.6883C138.27 14.6883 140.36 15.5445 142.073 17.257C143.785 18.9473 144.642 21.0267 144.642 23.4954C144.642 25.964 143.785 28.0546 142.073 29.7671ZM132.565 26.7981C133.433 27.6654 134.511 28.0991 135.801 28.0991C137.091 28.0991 138.17 27.6654 139.037 26.7981C139.904 25.9307 140.338 24.8298 140.338 23.4954C140.338 22.161 139.904 21.0601 139.037 20.1927C138.17 19.3254 137.091 18.8917 135.801 18.8917C134.511 18.8917 133.433 19.3254 132.565 20.1927C131.72 21.0601 131.297 22.161 131.297 23.4954C131.297 24.8298 131.72 25.9307 132.565 26.7981Z" fill="white"/>
<path d="M163.048 31.8354H158.044L151.972 24.2627V31.8354H147.669V8.4833H151.972V22.4946L157.71 15.1553H162.848L156.142 23.3953L163.048 31.8354Z" fill="white"/>
<path d="M167.331 13.1537C166.62 13.1537 165.997 12.898 165.463 12.3864C164.951 11.8527 164.696 11.23 164.696 10.5183C164.696 9.80659 164.951 9.18387 165.463 8.6501C165.997 8.11634 166.62 7.84946 167.331 7.84946C168.065 7.84946 168.688 8.11634 169.199 8.6501C169.733 9.18387 170 9.80659 170 10.5183C170 11.23 169.733 11.8527 169.199 12.3864C168.688 12.898 168.065 13.1537 167.331 13.1537ZM165.196 31.8354V15.1553H169.5V31.8354H165.196Z" fill="white"/>
</svg>
