<svg width="30" height="26" viewBox="0 0 30 26" fill="none" xmlns="http://www.w3.org/2000/svg">
<g opacity="0.6">
<path d="M14.8568 12.5976C16.3526 12.5976 17.6476 12.0754 18.7061 11.0452C19.7642 10.0151 20.3008 8.75472 20.3008 7.29863C20.3008 5.84305 19.7644 4.58251 18.7059 3.55209C17.6475 2.52218 16.3524 2 14.8568 2C13.3609 2 12.066 2.52218 11.0078 3.55226C9.94948 4.58235 9.41284 5.84289 9.41284 7.29863C9.41284 8.75472 9.94948 10.0153 11.0078 11.0453C12.0664 12.0753 13.3614 12.5976 14.8568 12.5976ZM11.9445 4.46384C12.7565 3.67345 13.7091 3.28924 14.8568 3.28924C16.0044 3.28924 16.9572 3.67345 17.7694 4.46384C18.5814 5.25441 18.9763 6.18177 18.9763 7.29863C18.9763 8.41583 18.5814 9.34303 17.7694 10.1336C16.9572 10.9242 16.0044 11.3084 14.8568 11.3084C13.7094 11.3084 12.7568 10.924 11.9445 10.1336C11.1323 9.34319 10.7374 8.41583 10.7374 7.29863C10.7374 6.18177 11.1323 5.25441 11.9445 4.46384Z" fill="#0E1F4D" stroke="#0E1F4D" stroke-width="0.1"/>
<path d="M24.3828 18.9168C24.3523 18.4881 24.2906 18.0204 24.1997 17.5266C24.108 17.0291 23.9898 16.5588 23.8484 16.129C23.7022 15.6847 23.5037 15.2459 23.258 14.8254C23.0033 14.389 22.7039 14.009 22.368 13.6963C22.0168 13.3692 21.5867 13.1062 21.0894 12.9143C20.5938 12.7235 20.0445 12.6268 19.457 12.6268C19.2263 12.6268 19.0032 12.719 18.5722 12.992C18.307 13.1604 17.9968 13.3551 17.6505 13.5704C17.3544 13.7541 16.9533 13.9261 16.4579 14.0819C15.9746 14.2341 15.4838 14.3113 14.9992 14.3113C14.515 14.3113 14.0242 14.2341 13.5405 14.0819C13.0456 13.9263 12.6444 13.7542 12.3488 13.5706C12.0058 13.3573 11.6954 13.1626 11.4262 12.9919C10.9956 12.7188 10.7725 12.6266 10.5418 12.6266C9.95408 12.6266 9.40502 12.7235 8.9096 12.9145C8.41262 13.106 7.98238 13.369 7.63077 13.6965C7.29485 14.0094 6.99549 14.3892 6.74096 14.8254C6.49558 15.2459 6.29693 15.6845 6.15069 16.1291C6.00946 16.559 5.89134 17.0291 5.7996 17.5266C5.70855 18.0198 5.64699 18.4876 5.61647 18.9173C5.58646 19.3374 5.57129 19.7746 5.57129 20.2164C5.57129 21.3648 5.94635 22.2945 6.68596 22.9802C7.41642 23.6568 8.38279 23.9999 9.55832 23.9999H20.4415C21.6167 23.9999 22.5831 23.6568 23.3137 22.9802C24.0535 22.295 24.4285 21.365 24.4285 20.2162C24.4284 19.7729 24.413 19.3357 24.3828 18.9168ZM22.4004 22.0461C21.9178 22.4933 21.277 22.7106 20.4413 22.7106H9.55832C8.7225 22.7106 8.0817 22.4933 7.59921 22.0463C7.12586 21.6077 6.89582 21.009 6.89582 20.2164C6.89582 19.8042 6.90979 19.3971 6.93772 19.0064C6.96497 18.623 7.02067 18.2019 7.10327 17.7544C7.18483 17.3125 7.28864 16.8977 7.41211 16.5222C7.53058 16.1622 7.69216 15.8057 7.89253 15.4623C8.08377 15.135 8.30381 14.8542 8.54661 14.6279C8.77371 14.4162 9.05997 14.243 9.39726 14.1131C9.70921 13.9929 10.0598 13.9271 10.4404 13.9172C10.4868 13.9412 10.5694 13.987 10.7032 14.072C10.9755 14.2447 11.2893 14.4417 11.6363 14.6574C12.0274 14.9001 12.5312 15.1194 13.1332 15.3085C13.7487 15.5022 14.3764 15.6006 14.9994 15.6006C15.6224 15.6006 16.2503 15.5022 16.8654 15.3087C17.4679 15.1192 17.9716 14.9001 18.3632 14.6571C18.7183 14.4362 19.0233 14.2449 19.2956 14.072C19.4294 13.9872 19.512 13.9412 19.5584 13.9172C19.9392 13.9271 20.2897 13.9929 20.6019 14.1131C20.939 14.243 21.2252 14.4164 21.4524 14.6279C21.6952 14.854 21.9152 15.1348 22.1064 15.4624C22.307 15.8057 22.4687 16.1624 22.587 16.5221C22.7107 16.898 22.8146 17.3126 22.896 17.7542C22.9785 18.2026 23.0343 18.6239 23.0616 19.0066V19.0069C23.0897 19.3961 23.1038 19.803 23.104 20.2164C23.1038 21.0091 22.8738 21.6077 22.4004 22.0461Z" fill="#0E1F4D" stroke="#0E1F4D" stroke-width="0.1"/>
</g>
</svg>
