<svg width="16" height="16" viewBox="0 0 16 16" fill="none" xmlns="http://www.w3.org/2000/svg">
<g clip-path="url(#clip0_89_383)">
<path d="M14.1666 0H1.83337C0.822021 0 0 0.822021 0 1.83337V14.1666C0 15.178 0.822021 16 1.83337 16H14.1666C15.178 16 16 15.178 16 14.1666V1.83337C16 0.822021 15.178 0 14.1666 0V0Z" fill="#F44336"/>
<path d="M10.946 10.0033C11.2066 10.2641 11.2066 10.6861 10.946 10.9461C10.8159 11.0761 10.6453 11.1414 10.4745 11.1414C10.3039 11.1414 10.1332 11.0761 10.0032 10.9461L7.99991 8.94266L5.99661 10.9461C5.86661 11.0761 5.69595 11.1414 5.5253 11.1414C5.35452 11.1414 5.18387 11.0761 5.05386 10.9461C4.79324 10.6861 4.79324 10.2641 5.05386 10.0033L7.05728 8.00003L5.05386 5.99673C4.79324 5.73599 4.79324 5.314 5.05386 5.05399C5.31461 4.79337 5.73587 4.79337 5.99661 5.05399L7.99991 7.0574L10.0032 5.05399C10.2639 4.79337 10.6852 4.79337 10.946 5.05399C11.2066 5.314 11.2066 5.73599 10.946 5.99673L8.94254 8.00003L10.946 10.0033Z" fill="#FAFAFA"/>
</g>
<defs>
<clipPath id="clip0_89_383">
<rect width="16" height="16" fill="white"/>
</clipPath>
</defs>
</svg>
