<svg width="22" height="21" viewBox="0 0 22 21" fill="none" xmlns="http://www.w3.org/2000/svg">
<path fill-rule="evenodd" clip-rule="evenodd" d="M16.6642 1.04444C16.0672 1.18015 15.4554 1.61122 15.1346 2.12223C15.0788 2.21114 14.1946 4.0342 10.0569 12.5911C9.35063 14.0519 8.75543 15.3244 8.73429 15.4191C8.68898 15.6218 8.78945 18.7119 8.84789 18.9131C8.86804 18.9825 8.93129 19.1255 8.98848 19.2308L9.09242 19.4223L8.94715 19.7115C8.7198 20.1642 8.76468 20.4159 9.10274 20.5842C9.24833 20.6567 9.25465 20.6567 9.43044 20.5837C9.59107 20.5169 9.62689 20.4767 9.77564 20.1964L9.94158 19.8836L10.2055 19.8348C10.3506 19.8079 10.5316 19.7546 10.6078 19.7164C10.7172 19.6615 13.0989 17.9267 13.2818 17.7686C13.3963 17.6697 13.5463 17.3861 14.2167 16.0009C14.6115 15.1852 15.6603 13.0197 16.5473 11.1886C17.4344 9.35756 18.3151 7.53767 18.5046 7.14443L18.8489 6.42948L19.0261 6.51581C19.1236 6.56328 19.2033 6.61282 19.2033 6.62594C19.2033 6.63906 18.6649 7.75916 18.0068 9.11504C16.7279 11.7498 16.7219 11.7652 16.8805 12.0079C17.022 12.2244 17.3501 12.2757 17.5494 12.1125C17.6484 12.0315 17.7681 11.7953 18.9612 9.32728C19.4556 8.30456 20.1165 6.939 20.4299 6.29275C20.7433 5.6465 20.9998 5.07635 21 5.02574C21.0007 4.76967 20.7752 4.54983 20.5119 4.54983C20.2669 4.54983 20.1668 4.6604 19.8894 5.23748L19.6361 5.76447L19.4588 5.67811C19.3613 5.6306 19.2815 5.57737 19.2815 5.55978C19.2815 5.54224 19.3942 5.30222 19.5321 5.02641C19.8611 4.36805 19.9608 4.03835 19.9604 3.60982C19.9601 3.20942 19.9006 2.94042 19.7287 2.56297C19.4077 1.85785 18.7838 1.33039 17.9924 1.09496C17.65 0.993088 16.9989 0.968334 16.6642 1.04444ZM17.8159 2.04292C18.3044 2.21141 18.649 2.51797 18.8632 2.97442C19.0046 3.27561 19.0498 3.69317 18.9687 3.94928C18.9228 4.09432 17.4209 7.24137 17.3688 7.30169C17.3465 7.32758 14.4655 5.95929 14.3895 5.88675C14.3738 5.87171 14.7101 5.13835 15.137 4.25702C15.7315 3.02933 15.9542 2.60782 16.0888 2.4546C16.2803 2.23687 16.6405 2.02141 16.9077 1.96482C17.142 1.91519 17.5464 1.94997 17.8159 2.04292ZM1.22497 6.96113C1.09875 7.02979 0.999766 7.20444 1 7.35809C1.0002 7.51436 1.1341 7.71388 1.28278 7.77945C1.35274 7.81027 1.73521 7.89099 2.13268 7.95879C3.83966 8.24988 4.51187 8.42374 5.12399 8.73234C6.47433 9.41317 6.80882 10.4514 6.19541 12.0579C6.02373 12.5076 5.47751 13.6008 4.84886 14.7528C3.79654 16.6813 3.4227 17.55 3.27719 18.405C3.15957 19.0962 3.28536 19.5729 3.69439 19.9856C4.06858 20.3632 4.67765 20.5951 5.53239 20.6853C6.10209 20.7455 7.38141 20.7372 7.53622 20.6723C7.88189 20.5275 7.89568 20.0172 7.5586 19.8425C7.47579 19.7996 7.2895 19.7857 6.79293 19.7857C5.62157 19.7856 4.87531 19.6704 4.49972 19.4316C4.20002 19.241 4.12901 19.0074 4.22104 18.515C4.3621 17.7602 4.65788 17.1024 5.82509 14.9473C6.7957 13.1553 7.10512 12.4712 7.31262 11.6586C7.40856 11.2828 7.42259 11.1552 7.42231 10.6599C7.42204 10.1487 7.41153 10.0606 7.31747 9.7786C7.16793 9.33049 6.9632 9.00333 6.60542 8.64072C6.11436 8.14307 5.56583 7.82429 4.73039 7.55106C4.18604 7.37305 3.83591 7.2948 2.6048 7.07617C1.52814 6.88495 1.38669 6.87316 1.22497 6.96113ZM9.90732 16.8257C10.3443 17.1404 10.9711 17.4479 11.5049 17.6095L11.7949 17.6973L11.583 17.8535C11.4665 17.9394 11.1954 18.1396 10.9805 18.2984C10.2667 18.8261 10.1727 18.8849 10.0433 18.8849C9.96463 18.8849 9.88896 18.8519 9.83459 18.7938C9.75423 18.7081 9.74705 18.6479 9.7115 17.7657C9.6656 16.626 9.66654 16.6915 9.69654 16.6915C9.71005 16.6915 9.80494 16.7519 9.90732 16.8257Z" fill="#2339AA" stroke="#2339AA" stroke-width="0.4"/>
</svg>
