<svg width="30" height="26" viewBox="0 0 30 26" fill="none" xmlns="http://www.w3.org/2000/svg">
<path d="M11.1087 11.8271H6.6964C5.20958 11.8271 4 10.6148 4 9.12462V4.70244C4 3.21229 5.20958 2 6.6964 2H11.1087C12.5955 2 13.8051 3.21229 13.8051 4.70244V9.12462C13.8051 10.6148 12.5955 11.8271 11.1087 11.8271ZM6.6964 3.31027C5.93046 3.31027 5.30735 3.93478 5.30735 4.70244V9.12462C5.30735 9.89227 5.93046 10.5168 6.6964 10.5168H11.1087C11.8746 10.5168 12.4978 9.89227 12.4978 9.12462V4.70244C12.4978 3.93478 11.8746 3.31027 11.1087 3.31027H6.6964Z" fill="#7438FF"/>
<path d="M23.3035 11.8271H18.8912C17.4044 11.8271 16.1948 10.6148 16.1948 9.12462V4.70244C16.1948 3.21229 17.4044 2 18.8912 2H23.3035C24.7903 2 25.9999 3.21229 25.9999 4.70244V9.12462C25.9999 10.6148 24.7903 11.8271 23.3035 11.8271ZM18.8912 3.31027C18.1253 3.31027 17.5022 3.93478 17.5022 4.70244V9.12462C17.5022 9.89227 18.1253 10.5168 18.8912 10.5168H23.3035C24.0695 10.5168 24.6926 9.89227 24.6926 9.12462V4.70244C24.6926 3.93478 24.0695 3.31027 23.3035 3.31027H18.8912Z" fill="#7438FF"/>
<path d="M11.1087 24H6.6964C5.20958 24 4 22.7877 4 21.2975V16.8754C4 15.3852 5.20958 14.1729 6.6964 14.1729H11.1087C12.5955 14.1729 13.8051 15.3852 13.8051 16.8754V21.2975C13.8051 22.7877 12.5955 24 11.1087 24ZM6.6964 15.4832C5.93046 15.4832 5.30735 16.1077 5.30735 16.8754V21.2975C5.30735 22.0652 5.93046 22.6897 6.6964 22.6897H11.1087C11.8746 22.6897 12.4978 22.0652 12.4978 21.2975V16.8754C12.4978 16.1077 11.8746 15.4832 11.1087 15.4832H6.6964Z" fill="#7438FF"/>
<path d="M23.3035 24H18.8912C17.4044 24 16.1948 22.7877 16.1948 21.2975V16.8754C16.1948 15.3852 17.4044 14.1729 18.8912 14.1729H23.3035C24.7903 14.1729 25.9999 15.3852 25.9999 16.8754V21.2975C25.9999 22.7877 24.7903 24 23.3035 24ZM18.8912 15.4832C18.1253 15.4832 17.5022 16.1077 17.5022 16.8754V21.2975C17.5022 22.0652 18.1253 22.6897 18.8912 22.6897H23.3035C24.0695 22.6897 24.6926 22.0652 24.6926 21.2975V16.8754C24.6926 16.1077 24.0695 15.4832 23.3035 15.4832H18.8912Z" fill="#7438FF"/>
</svg>
