<svg width="30" height="26" viewBox="0 0 30 26" fill="none" xmlns="http://www.w3.org/2000/svg">
<g opacity="0.6">
<path d="M25.3125 8.1875C24.9328 8.1875 24.625 7.87967 24.625 7.5V3.97656C24.625 3.64484 24.3552 3.375 24.0234 3.375H20.5C20.1203 3.375 19.8125 3.06717 19.8125 2.6875C19.8125 2.30783 20.1203 2 20.5 2H24.0234C25.1133 2 26 2.8867 26 3.97656V7.5C26 7.87967 25.6922 8.1875 25.3125 8.1875Z" fill="#0E1F4D"/>
<path d="M4.6875 8.1875C4.30779 8.1875 4 7.87967 4 7.5V3.97656C4 2.8867 4.8867 2 5.97656 2H9.5C9.87971 2 10.1875 2.30783 10.1875 2.6875C10.1875 3.06717 9.87971 3.375 9.5 3.375H5.97656C5.64484 3.375 5.375 3.64484 5.375 3.97656V7.5C5.375 7.87967 5.06721 8.1875 4.6875 8.1875Z" fill="#0E1F4D"/>
<path d="M9.5 24H5.97656C4.8867 24 4 23.1133 4 22.0234V18.5C4 18.1203 4.30779 17.8125 4.6875 17.8125C5.06721 17.8125 5.375 18.1203 5.375 18.5V22.0234C5.375 22.3552 5.64484 22.625 5.97656 22.625H9.5C9.87971 22.625 10.1875 22.9328 10.1875 23.3125C10.1875 23.6922 9.87971 24 9.5 24Z" fill="#0E1F4D"/>
<path d="M24.0234 24H20.5C20.1203 24 19.8125 23.6922 19.8125 23.3125C19.8125 22.9328 20.1203 22.625 20.5 22.625H24.0234C24.3552 22.625 24.625 22.3552 24.625 22.0234V18.5C24.625 18.1203 24.9328 17.8125 25.3125 17.8125C25.6922 17.8125 26 18.1203 26 18.5V22.0234C26 23.1133 25.1133 24 24.0234 24Z" fill="#0E1F4D"/>
<path d="M12.3359 12.3125H8.72656C7.6367 12.3125 6.75 11.4258 6.75 10.3359V6.72656C6.75 5.6367 7.6367 4.75 8.72656 4.75H12.3359C13.4258 4.75 14.3125 5.6367 14.3125 6.72656V10.3359C14.3125 11.4258 13.4258 12.3125 12.3359 12.3125ZM8.72656 6.125C8.39484 6.125 8.125 6.39484 8.125 6.72656V10.3359C8.125 10.6677 8.39484 10.9375 8.72656 10.9375H12.3359C12.6677 10.9375 12.9375 10.6677 12.9375 10.3359V6.72656C12.9375 6.39484 12.6677 6.125 12.3359 6.125H8.72656Z" fill="#0E1F4D"/>
<path d="M12.3359 21.25H8.72656C7.6367 21.25 6.75 20.3633 6.75 19.2734V15.6641C6.75 14.5742 7.6367 13.6875 8.72656 13.6875H12.3359C13.4258 13.6875 14.3125 14.5742 14.3125 15.6641V19.2734C14.3125 20.3633 13.4258 21.25 12.3359 21.25ZM8.72656 15.0625C8.39484 15.0625 8.125 15.3323 8.125 15.6641V19.2734C8.125 19.6052 8.39484 19.875 8.72656 19.875H12.3359C12.6677 19.875 12.9375 19.6052 12.9375 19.2734V15.6641C12.9375 15.3323 12.6677 15.0625 12.3359 15.0625H8.72656Z" fill="#0E1F4D"/>
<path d="M21.2734 12.3125H17.6641C16.5742 12.3125 15.6875 11.4258 15.6875 10.3359V6.72656C15.6875 5.6367 16.5742 4.75 17.6641 4.75H21.2734C22.3633 4.75 23.25 5.6367 23.25 6.72656V10.3359C23.25 11.4258 22.3633 12.3125 21.2734 12.3125ZM17.6641 6.125C17.3323 6.125 17.0625 6.39484 17.0625 6.72656V10.3359C17.0625 10.6677 17.3323 10.9375 17.6641 10.9375H21.2734C21.6052 10.9375 21.875 10.6677 21.875 10.3359V6.72656C21.875 6.39484 21.6052 6.125 21.2734 6.125H17.6641Z" fill="#0E1F4D"/>
<path d="M22.1328 17.125H20.5V14.8047C20.5 14.1887 19.9989 13.6875 19.3828 13.6875H16.8047C16.1886 13.6875 15.6875 14.1887 15.6875 14.8047V17.3828C15.6875 17.9988 16.1886 18.5 16.8047 18.5H19.125V20.1328C19.125 20.7488 19.6261 21.25 20.2422 21.25H22.1328C22.7489 21.25 23.25 20.7488 23.25 20.1328V18.2422C23.25 17.6262 22.7489 17.125 22.1328 17.125ZM17.0625 15.0625H19.125V17.125H17.0625V15.0625ZM21.875 19.875H20.5V18.5H21.875V19.875Z" fill="#0E1F4D"/>
<path d="M10.875 9.5625H10.1875C9.80779 9.5625 9.5 9.25467 9.5 8.875V8.1875C9.5 7.80783 9.80779 7.5 10.1875 7.5H10.875C11.2547 7.5 11.5625 7.80783 11.5625 8.1875V8.875C11.5625 9.25467 11.2547 9.5625 10.875 9.5625Z" fill="#0E1F4D"/>
<path d="M19.8125 9.5625H19.125C18.7453 9.5625 18.4375 9.25467 18.4375 8.875V8.1875C18.4375 7.80783 18.7453 7.5 19.125 7.5H19.8125C20.1922 7.5 20.5 7.80783 20.5 8.1875V8.875C20.5 9.25467 20.1922 9.5625 19.8125 9.5625Z" fill="#0E1F4D"/>
<path d="M10.875 18.5H10.1875C9.80779 18.5 9.5 18.1922 9.5 17.8125V17.125C9.5 16.7453 9.80779 16.4375 10.1875 16.4375H10.875C11.2547 16.4375 11.5625 16.7453 11.5625 17.125V17.8125C11.5625 18.1922 11.2547 18.5 10.875 18.5Z" fill="#0E1F4D"/>
</g>
</svg>
