<svg width="14" height="13" viewBox="0 0 14 13" fill="none" xmlns="http://www.w3.org/2000/svg">
<path d="M13.4037 10.5334C13.1384 11.2828 12.0851 11.9043 11.245 12.0857C10.6702 12.2081 9.9195 12.3058 7.39225 11.258C4.15962 9.91875 2.07787 6.63388 1.91562 6.42075C1.76025 6.20763 0.609375 4.68138 0.609375 3.10288C0.609375 1.52438 1.411 0.755753 1.73413 0.425753C1.9995 0.154878 2.43812 0.0311279 2.85887 0.0311279C2.995 0.0311279 3.11737 0.038003 3.22737 0.043503C3.5505 0.057253 3.71275 0.0765033 3.92587 0.586628C4.19125 1.226 4.8375 2.8045 4.9145 2.96675C4.99287 3.129 5.07125 3.349 4.96125 3.56213C4.85812 3.78213 4.76737 3.87975 4.60512 4.06675C4.44287 4.25375 4.28887 4.39675 4.12662 4.5975C3.97812 4.77213 3.81037 4.95913 3.99737 5.28225C4.18437 5.5985 4.83062 6.65313 5.78212 7.50013C7.01 8.59325 8.0055 8.9425 8.36162 9.091C8.627 9.201 8.94325 9.17488 9.13712 8.96863C9.38325 8.70325 9.68712 8.26325 9.9965 7.83013C10.2165 7.51938 10.4942 7.48088 10.7857 7.59088C11.0827 7.694 12.6544 8.47087 12.9775 8.63175C13.3006 8.794 13.5137 8.871 13.5921 9.00713C13.6691 9.14325 13.6691 9.78263 13.4037 10.5334Z" fill="#FAFAFA"/>
</svg>
